<svg xmlns="http://www.w3.org/2000/svg" xmlns:xlink="http://www.w3.org/1999/xlink" version="1.1" width="204.09449pt" height="204.09449pt" viewBox="0 0 204.09449 204.09449">
<g>
<path d="M165.906 127.766C165.906 140.516 156.066 151.445 136.383 160.551 119.117 168.594 98.109 173.711 73.363 175.91 72.445 175.973 71.695 176.004 71.121 176.004 68.473 176.004 62.602 171.605 53.508 162.813 44.418 153.957 39.871 148.555 39.871 146.609 39.871 145.918 40.734 145.477 42.461 145.289 59.148 143.219 70.199 141.457 75.609 140.016 87.578 136.746 93.566 131.91 93.566 125.504 93.566 121.422 89.652 116.867 81.824 111.844 68.242 103.301 60.875 98.559 59.727 97.617 51.781 91.086 47.813 83.863 47.813 75.949 47.813 64.457 57.539 54.906 76.988 47.309 92.875 41.027 112.383 36.945 135.52 35.063 136.785 34.996 137.766 34.965 138.453 34.965 140.18 34.965 141.563 35.719 142.598 37.227 145.59 41.813 152.555 50.102 163.488 62.102 163.836 62.477 164.008 62.789 164.008 63.043 164.008 64.109 162.973 64.645 160.898 64.645 159.977 64.645 158.426 64.551 156.238 64.359 154.051 64.172 152.383 64.078 151.23 64.078 142.945 64.078 135.691 65.113 129.477 67.188 121.996 69.574 118.254 72.902 118.254 77.176 118.254 81.004 122.398 85.715 130.684 91.305 145.305 101.355 152.957 106.633 153.648 107.133 161.82 114.043 165.906 120.922 165.906 127.766ZM165.906 127.766" fill="#4d4d4d"/>
</g>
</svg>
